<svg xmlns="http://www.w3.org/2000/svg" version="1.1" xmlns:xlink="http://www.w3.org/1999/xlink" xmlns:svgjs="http://svgjs.dev/svgjs" width="2000" height="1247" viewBox="0 0 2000 1247"><g transform="matrix(1,0,0,1,-1.2121212121212466,0.504858299595071)"><svg viewBox="0 0 396 247" data-background-color="#ffffff" preserveAspectRatio="xMidYMid meet" height="1247" width="2000" xmlns="http://www.w3.org/2000/svg" xmlns:xlink="http://www.w3.org/1999/xlink"><g id="tight-bounds" transform="matrix(1,0,0,1,0.2400000000000091,-0.09999999999999432)"><svg viewBox="0 0 395.52 247.2" height="247.2" width="395.52"><g><svg></svg></g><g><svg viewBox="0 0 395.52 247.2" height="247.2" width="395.52"><g transform="matrix(1,0,0,1,75.54432,63.345621452513974)"><svg viewBox="0 0 244.43135999999998 120.50875709497204" height="120.50875709497204" width="244.43135999999998"><g><svg viewBox="0 0 244.43135999999998 120.50875709497204" height="120.50875709497204" width="244.43135999999998"><g><svg viewBox="0 0 244.43135999999998 120.50875709497204" height="120.50875709497204" width="244.43135999999998"><g><svg viewBox="0 0 244.43135999999998 120.50875709497204" height="120.50875709497204" width="244.43135999999998"><g id="textblocktransform"><svg viewBox="0 0 244.43135999999998 120.50875709497204" height="120.50875709497204" width="244.43135999999998" id="textblock"><g><svg viewBox="0 0 244.43135999999998 120.50875709497204" height="120.50875709497204" width="244.43135999999998"><g transform="matrix(1,0,0,1,0,0)"><svg width="244.43135999999998" viewBox="4.3 -35 71.60000000000001 35.300000000000004" height="120.50875709497204" data-palette-color="#ff5858"><path d="M32.75-17.35L32.75-17.35Q32.75-12.85 31.35-9.53 29.95-6.2 27.4-4.03 24.85-1.85 21.3-0.78 17.75 0.3 13.5 0.3L13.5 0.3Q11.4 0.3 8.88 0.13 6.35-0.05 4.3-0.55L4.3-0.55 4.3-34.15Q6.35-34.65 8.88-34.83 11.4-35 13.5-35L13.5-35Q17.75-35 21.3-33.93 24.85-32.85 27.4-30.68 29.95-28.5 31.35-25.18 32.75-21.85 32.75-17.35ZM13.9-3.95L13.9-3.95Q20.8-3.95 24.2-7.48 27.6-11 27.6-17.35L27.6-17.35Q27.6-23.7 24.2-27.23 20.8-30.75 13.9-30.75L13.9-30.75Q11.85-30.75 10.73-30.7 9.6-30.65 9.15-30.6L9.15-30.6 9.15-4.1Q9.6-4.05 10.73-4 11.85-3.95 13.9-3.95ZM59.4-4.8L55.5-4.8Q55-6 54.17-7.85 53.35-9.7 52.4-11.85 51.45-14 50.37-16.28 49.3-18.55 48.35-20.58 47.4-22.6 46.57-24.2 45.75-25.8 45.25-26.65L45.25-26.65Q44.7-20.75 44.35-13.88 44-7 43.75 0L43.75 0 39 0Q39.2-4.5 39.45-9.08 39.7-13.65 40.02-18.07 40.35-22.5 40.72-26.7 41.1-30.9 41.55-34.65L41.55-34.65 45.8-34.65Q47.15-32.45 48.7-29.45 50.25-26.45 51.8-23.18 53.35-19.9 54.8-16.63 56.25-13.35 57.45-10.65L57.45-10.65Q58.65-13.35 60.1-16.63 61.55-19.9 63.1-23.18 64.65-26.45 66.2-29.45 67.75-32.45 69.1-34.65L69.1-34.65 73.35-34.65Q75.05-17.9 75.9 0L75.9 0 71.15 0Q70.9-7 70.55-13.88 70.2-20.75 69.65-26.65L69.65-26.65Q69.15-25.8 68.32-24.2 67.5-22.6 66.55-20.58 65.6-18.55 64.52-16.28 63.45-14 62.5-11.85 61.55-9.7 60.72-7.85 59.9-6 59.4-4.8L59.4-4.8Z" opacity="1" transform="matrix(1,0,0,1,0,0)" fill="#ffffff" class="wordmark-text-0" data-fill-palette-color="primary" id="text-0"></path></svg></g></svg></g></svg></g></svg></g></svg></g></svg></g></svg></g><path d="M239.515 57.346L239.515 9.537 11.388 9.537 11.388 237.663 239.515 237.663 239.515 189.854 228.647 189.854 228.647 226.796 22.255 226.796 22.255 20.404 228.647 20.404 228.647 57.346Z" fill="#ffffff" stroke="transparent" data-fill-palette-color="tertiary"></path></svg></g><defs></defs></svg><rect width="395.52" height="247.2" fill="none" stroke="none" visibility="hidden"></rect></g></svg></g></svg>